<mxfile host="app.diagrams.net" agent="Mozilla/5.0 (Windows NT 10.0; Win64; x64) AppleWebKit/537.36 (KHTML, like Gecko) Chrome/129.0.0.0 Safari/537.36" version="24.8.4">
  <diagram name="Página-1" id="2QTjBhEcu76BYilLJhf1">
    <mxGraphModel dx="1434" dy="780" grid="1" gridSize="10" guides="1" tooltips="1" connect="1" arrows="1" fold="1" page="1" pageScale="1" pageWidth="827" pageHeight="1169" math="0" shadow="0">
      <root>
        <mxCell id="0" />
        <mxCell id="1" parent="0" />
        <mxCell id="CzNqggqJgEbq-_W_JAM7-6" value="" style="fontStyle=0;html=1;whiteSpace=wrap;" vertex="1" parent="1">
          <mxGeometry x="70" y="450" width="610" height="110" as="geometry" />
        </mxCell>
        <mxCell id="CzNqggqJgEbq-_W_JAM7-7" value="" style="fontStyle=0;html=1;whiteSpace=wrap;" vertex="1" parent="1">
          <mxGeometry x="70" y="560" width="610" height="510" as="geometry" />
        </mxCell>
        <mxCell id="CzNqggqJgEbq-_W_JAM7-11" value="" style="edgeStyle=orthogonalEdgeStyle;rounded=0;orthogonalLoop=1;jettySize=auto;html=1;" edge="1" parent="1" source="CzNqggqJgEbq-_W_JAM7-8" target="CzNqggqJgEbq-_W_JAM7-10">
          <mxGeometry relative="1" as="geometry" />
        </mxCell>
        <mxCell id="CzNqggqJgEbq-_W_JAM7-8" value="cliente" style="text;html=1;align=center;verticalAlign=middle;whiteSpace=wrap;rounded=0;" vertex="1" parent="1">
          <mxGeometry x="70" y="490" width="60" height="30" as="geometry" />
        </mxCell>
        <mxCell id="CzNqggqJgEbq-_W_JAM7-9" value="padeiro" style="text;html=1;align=center;verticalAlign=middle;whiteSpace=wrap;rounded=0;" vertex="1" parent="1">
          <mxGeometry x="70" y="600" width="60" height="30" as="geometry" />
        </mxCell>
        <mxCell id="CzNqggqJgEbq-_W_JAM7-14" value="" style="edgeStyle=orthogonalEdgeStyle;rounded=0;orthogonalLoop=1;jettySize=auto;html=1;" edge="1" parent="1" source="CzNqggqJgEbq-_W_JAM7-10" target="CzNqggqJgEbq-_W_JAM7-13">
          <mxGeometry relative="1" as="geometry" />
        </mxCell>
        <mxCell id="CzNqggqJgEbq-_W_JAM7-10" value="faz pedido" style="ellipse;whiteSpace=wrap;html=1;" vertex="1" parent="1">
          <mxGeometry x="160" y="485" width="90" height="40" as="geometry" />
        </mxCell>
        <mxCell id="CzNqggqJgEbq-_W_JAM7-12" value="" style="ellipse;html=1;shape=endState;fillColor=strokeColor;" vertex="1" parent="1">
          <mxGeometry x="630" y="490" width="30" height="30" as="geometry" />
        </mxCell>
        <mxCell id="CzNqggqJgEbq-_W_JAM7-16" value="" style="edgeStyle=orthogonalEdgeStyle;rounded=0;orthogonalLoop=1;jettySize=auto;html=1;" edge="1" parent="1" source="CzNqggqJgEbq-_W_JAM7-13" target="CzNqggqJgEbq-_W_JAM7-15">
          <mxGeometry relative="1" as="geometry" />
        </mxCell>
        <mxCell id="CzNqggqJgEbq-_W_JAM7-13" value="recebe pedido" style="ellipse;whiteSpace=wrap;html=1;" vertex="1" parent="1">
          <mxGeometry x="160" y="595" width="90" height="40" as="geometry" />
        </mxCell>
        <mxCell id="CzNqggqJgEbq-_W_JAM7-20" value="" style="edgeStyle=orthogonalEdgeStyle;rounded=0;orthogonalLoop=1;jettySize=auto;html=1;" edge="1" parent="1" source="CzNqggqJgEbq-_W_JAM7-15" target="CzNqggqJgEbq-_W_JAM7-19">
          <mxGeometry relative="1" as="geometry" />
        </mxCell>
        <mxCell id="CzNqggqJgEbq-_W_JAM7-15" value="ingredientes" style="ellipse;whiteSpace=wrap;html=1;" vertex="1" parent="1">
          <mxGeometry x="270" y="595" width="90" height="40" as="geometry" />
        </mxCell>
        <mxCell id="CzNqggqJgEbq-_W_JAM7-28" style="edgeStyle=orthogonalEdgeStyle;rounded=0;orthogonalLoop=1;jettySize=auto;html=1;exitX=0;exitY=0.5;exitDx=0;exitDy=0;entryX=0.5;entryY=0;entryDx=0;entryDy=0;" edge="1" parent="1" source="CzNqggqJgEbq-_W_JAM7-19" target="CzNqggqJgEbq-_W_JAM7-23">
          <mxGeometry relative="1" as="geometry">
            <Array as="points">
              <mxPoint x="238" y="745" />
              <mxPoint x="238" y="800" />
              <mxPoint x="240" y="800" />
            </Array>
          </mxGeometry>
        </mxCell>
        <mxCell id="CzNqggqJgEbq-_W_JAM7-29" style="edgeStyle=orthogonalEdgeStyle;rounded=0;orthogonalLoop=1;jettySize=auto;html=1;exitX=1;exitY=0.5;exitDx=0;exitDy=0;entryX=0.5;entryY=0;entryDx=0;entryDy=0;" edge="1" parent="1" source="CzNqggqJgEbq-_W_JAM7-19" target="CzNqggqJgEbq-_W_JAM7-27">
          <mxGeometry relative="1" as="geometry" />
        </mxCell>
        <mxCell id="CzNqggqJgEbq-_W_JAM7-19" value="tem o ingrediente?" style="rhombus;" vertex="1" parent="1">
          <mxGeometry x="257.5" y="690" width="115" height="110" as="geometry" />
        </mxCell>
        <mxCell id="CzNqggqJgEbq-_W_JAM7-21" value="sim" style="text;html=1;align=center;verticalAlign=middle;whiteSpace=wrap;rounded=0;" vertex="1" parent="1">
          <mxGeometry x="210" y="700" width="60" height="30" as="geometry" />
        </mxCell>
        <mxCell id="CzNqggqJgEbq-_W_JAM7-22" value="não" style="text;html=1;align=center;verticalAlign=middle;whiteSpace=wrap;rounded=0;" vertex="1" parent="1">
          <mxGeometry x="360" y="700" width="60" height="30" as="geometry" />
        </mxCell>
        <mxCell id="CzNqggqJgEbq-_W_JAM7-31" value="" style="edgeStyle=orthogonalEdgeStyle;rounded=0;orthogonalLoop=1;jettySize=auto;html=1;" edge="1" parent="1" source="CzNqggqJgEbq-_W_JAM7-23" target="CzNqggqJgEbq-_W_JAM7-30">
          <mxGeometry relative="1" as="geometry" />
        </mxCell>
        <mxCell id="CzNqggqJgEbq-_W_JAM7-23" value="prepara o pedido" style="ellipse;whiteSpace=wrap;html=1;" vertex="1" parent="1">
          <mxGeometry x="195" y="810" width="90" height="40" as="geometry" />
        </mxCell>
        <mxCell id="CzNqggqJgEbq-_W_JAM7-27" value="cliente insastisfeiro" style="ellipse;whiteSpace=wrap;html=1;" vertex="1" parent="1">
          <mxGeometry x="369" y="810" width="90" height="40" as="geometry" />
        </mxCell>
        <mxCell id="CzNqggqJgEbq-_W_JAM7-34" style="edgeStyle=orthogonalEdgeStyle;rounded=0;orthogonalLoop=1;jettySize=auto;html=1;exitX=0.5;exitY=1;exitDx=0;exitDy=0;entryX=0.5;entryY=1;entryDx=0;entryDy=0;" edge="1" parent="1" source="CzNqggqJgEbq-_W_JAM7-30" target="CzNqggqJgEbq-_W_JAM7-33">
          <mxGeometry relative="1" as="geometry" />
        </mxCell>
        <mxCell id="CzNqggqJgEbq-_W_JAM7-30" value="entrega o pedido" style="ellipse;whiteSpace=wrap;html=1;" vertex="1" parent="1">
          <mxGeometry x="195" y="920" width="90" height="40" as="geometry" />
        </mxCell>
        <mxCell id="CzNqggqJgEbq-_W_JAM7-35" value="" style="edgeStyle=orthogonalEdgeStyle;rounded=0;orthogonalLoop=1;jettySize=auto;html=1;" edge="1" parent="1" source="CzNqggqJgEbq-_W_JAM7-33" target="CzNqggqJgEbq-_W_JAM7-12">
          <mxGeometry relative="1" as="geometry" />
        </mxCell>
        <mxCell id="CzNqggqJgEbq-_W_JAM7-33" value="cliente come o pedido" style="ellipse;whiteSpace=wrap;html=1;" vertex="1" parent="1">
          <mxGeometry x="510" y="485" width="90" height="40" as="geometry" />
        </mxCell>
      </root>
    </mxGraphModel>
  </diagram>
</mxfile>
